<svg width="17" height="17" viewBox="0 0 17 17" fill="none" xmlns="http://www.w3.org/2000/svg">
<path d="M9.99695 6.80063L6.66342 10.1342C6.2352 9.70594 5.97168 9.1196 5.97168 8.46739C5.97168 7.16297 7.02576 6.10889 8.33019 6.10889C8.9824 6.10889 9.56873 6.37241 9.99695 6.80063Z" stroke="#1F1F1F" stroke-width="0.988201" stroke-linecap="round" stroke-linejoin="round"/>
<path d="M12.1644 4.36348C11.0115 3.49387 9.69387 3.01953 8.33015 3.01953C6.00459 3.01953 3.83713 4.38984 2.32848 6.76152C1.73556 7.69043 1.73556 9.25178 2.32848 10.1807C2.84893 10.9976 3.45503 11.7025 4.11383 12.2691" stroke="#1F1F1F" stroke-width="0.988201" stroke-linecap="round" stroke-linejoin="round"/>
<path d="M5.97168 13.4282C6.72271 13.7444 7.51986 13.9157 8.33019 13.9157C10.6558 13.9157 12.8232 12.5454 14.3319 10.1737C14.9248 9.24484 14.9248 7.68348 14.3319 6.75457C14.1145 6.41199 13.8773 6.08918 13.6335 5.78613" stroke="#1F1F1F" stroke-width="0.988201" stroke-linecap="round" stroke-linejoin="round"/>
<path d="M10.6435 8.92871C10.4722 9.85762 9.71455 10.6152 8.78564 10.7865" stroke="#1F1F1F" stroke-width="0.988201" stroke-linecap="round" stroke-linejoin="round"/>
<path d="M6.66392 10.1343L1.74268 15.0555" stroke="#1F1F1F" stroke-width="0.988201" stroke-linecap="round" stroke-linejoin="round"/>
<path d="M14.9188 1.87988L9.99756 6.80112" stroke="#1F1F1F" stroke-width="0.988201" stroke-linecap="round" stroke-linejoin="round"/>
</svg>
